<?xml version="1.0" encoding="UTF-8" standalone="no"?>
<!-- Generator: Adobe Illustrator 19.0.0, SVG Export Plug-In . SVG Version: 6.00 Build 0)  -->

<svg
   xmlns:dc="http://purl.org/dc/elements/1.1/"
   xmlns:cc="http://creativecommons.org/ns#"
   xmlns:rdf="http://www.w3.org/1999/02/22-rdf-syntax-ns#"
   xmlns:svg="http://www.w3.org/2000/svg"
   xmlns="http://www.w3.org/2000/svg"
   xmlns:sodipodi="http://sodipodi.sourceforge.net/DTD/sodipodi-0.dtd"
   xmlns:inkscape="http://www.inkscape.org/namespaces/inkscape"
   version="1.1"
   id="Capa_1"
   x="0px"
   y="0px"
   viewBox="0 0 420.8 420.8"
   style="enable-background:new 0 0 420.8 420.8;"
   xml:space="preserve"
   width="512px"
   height="512px"
   sodipodi:docname="camera-no.svg"
   inkscape:version="0.92.3 (2405546, 2018-03-11)"><metadata
   id="metadata49"><rdf:RDF><cc:Work
       rdf:about=""><dc:format>image/svg+xml</dc:format><dc:type
         rdf:resource="http://purl.org/dc/dcmitype/StillImage" /></cc:Work></rdf:RDF></metadata><defs
   id="defs47" /><sodipodi:namedview
   pagecolor="#ffffff"
   bordercolor="#666666"
   borderopacity="1"
   objecttolerance="10"
   gridtolerance="10"
   guidetolerance="10"
   inkscape:pageopacity="0"
   inkscape:pageshadow="2"
   inkscape:window-width="1366"
   inkscape:window-height="715"
   id="namedview45"
   showgrid="false"
   inkscape:zoom="0.4609375"
   inkscape:cx="362.91883"
   inkscape:cy="259.47024"
   inkscape:window-x="-8"
   inkscape:window-y="-8"
   inkscape:window-maximized="1"
   inkscape:current-layer="Capa_1" />
<g
   id="g12">
	<g
   id="g10">
		<g
   id="g8">
			<path
   d="M406.8,96.4c-8.4-8.8-20-14-33.2-14h-66.4v-0.8c0-10-4-19.6-10.8-26c-6.8-6.8-16-10.8-26-10.8h-120     c-10.4,0-19.6,4-26.4,10.8c-6.8,6.8-10.8,16-10.8,26v0.8h-66c-13.2,0-24.8,5.2-33.2,14c-8.4,8.4-14,20.4-14,33.2v199.2     C0,342,5.2,353.6,14,362c8.4,8.4,20.4,14,33.2,14h326.4c13.2,0,24.8-5.2,33.2-14c8.4-8.4,14-20.4,14-33.2V129.6     C420.8,116.4,415.6,104.8,406.8,96.4z M400,328.8h-0.4c0,7.2-2.8,13.6-7.6,18.4s-11.2,7.6-18.4,7.6H47.2     c-7.2,0-13.6-2.8-18.4-7.6c-4.8-4.8-7.6-11.2-7.6-18.4V129.6c0-7.2,2.8-13.6,7.6-18.4s11.2-7.6,18.4-7.6h77.2     c6,0,10.8-4.8,10.8-10.8V81.2c0-4.4,1.6-8.4,4.4-11.2s6.8-4.4,11.2-4.4h119.6c4.4,0,8.4,1.6,11.2,4.4c2.8,2.8,4.4,6.8,4.4,11.2     v11.6c0,6,4.8,10.8,10.8,10.8H374c7.2,0,13.6,2.8,18.4,7.6s7.6,11.2,7.6,18.4V328.8z"
   fill="#FFFFFF"
   id="path2" />
			<path
   d="M210.4,130.8c-27.2,0-52,11.2-69.6,28.8c-18,18-28.8,42.4-28.8,69.6s11.2,52,28.8,69.6c18,18,42.4,28.8,69.6,28.8     s52-11.2,69.6-28.8c18-18,28.8-42.4,28.8-69.6s-11.2-52-28.8-69.6C262.4,142,237.6,130.8,210.4,130.8z M264.8,284     c-14,13.6-33.2,22.4-54.4,22.4S170,297.6,156,284c-14-14-22.4-33.2-22.4-54.4c0-21.2,8.8-40.4,22.4-54.4     c14-14,33.2-22.4,54.4-22.4s40.4,8.8,54.4,22.4c14,14,22.4,33.2,22.4,54.4C287.6,250.8,278.8,270,264.8,284z"
   fill="#FFFFFF"
   id="path4" />
			<circle
   cx="352.8"
   cy="150"
   r="19.6"
   fill="#FFFFFF"
   id="circle6" />
		</g>
	</g>
</g>
<g
   id="g14">
</g>
<g
   id="g16">
</g>
<g
   id="g18">
</g>
<g
   id="g20">
</g>
<g
   id="g22">
</g>
<g
   id="g24">
</g>
<g
   id="g26">
</g>
<g
   id="g28">
</g>
<g
   id="g30">
</g>
<g
   id="g32">
</g>
<g
   id="g34">
</g>
<g
   id="g36">
</g>
<g
   id="g38">
</g>
<g
   id="g40">
</g>
<g
   id="g42">
</g>
<rect
   style="opacity:1;fill:#ffffff;fill-opacity:1;stroke:none;stroke-width:5.97019815;stroke-miterlimit:4;stroke-dasharray:none;stroke-opacity:1"
   id="rect858"
   width="19.011448"
   height="536.19513"
   x="300.18628"
   y="-198.04456"
   ry="6.8998518"
   transform="matrix(0.83781588,0.54595288,-0.70564118,0.70856935,0,0)" /></svg>