<svg xmlns="http://www.w3.org/2000/svg" viewBox="0 0 42.242 41.406">
  <defs>
    <style>
      .cls-1 {
        fill: #fff;
      }
    </style>
  </defs>
  <g id="icon" transform="translate(0 -0.232)">
    <g id="Group_7" data-name="Group 7" transform="translate(0 0.232)">
      <g id="Group_6" data-name="Group 6">
        <g id="Group_5" data-name="Group 5">
          <path id="Path_8" data-name="Path 8" class="cls-1" d="M23.4,41.638H19.023c-.835,0-1.076,0-3.35-5.628l-1.517-.617c-4.674,2.121-5.235,2.121-5.476,2.121a1.3,1.3,0,0,1-.874-.353L4.71,34.13c-.617-.608-.775-.765,1.68-6.335l-.612-1.445C0,24.284,0,24.034,0,23.168V18.878c0-.858,0-1.078,5.759-3.307l.612-1.448C3.778,8.659,3.956,8.483,4.579,7.869l3.1-3.031a1.318,1.318,0,0,1,.871-.347c.225,0,.81,0,5.563,2.006l1.508-.613C17.735.232,18,.232,18.84.232h4.379c.833,0,1.076,0,3.348,5.631l1.515.612c4.67-2.116,5.232-2.116,5.476-2.116a1.312,1.312,0,0,1,.871.345l3.1,3.028c.6.6.775.765-1.68,6.338l.61,1.454c5.78,2.064,5.78,2.312,5.78,3.174v4.289c0,.86,0,1.081-5.762,3.312l-.608,1.448c2.594,5.46,2.414,5.638,1.8,6.252L34.56,37.036a1.312,1.312,0,0,1-.871.347h0c-.221,0-.8,0-5.556-2.01l-1.515.613C24.505,41.638,24.259,41.638,23.4,41.638ZM19.653,39.3h3.1c.414-.885,1.211-2.886,1.851-4.609a1.164,1.164,0,0,1,.657-.676l2.441-.989a1.176,1.176,0,0,1,.9.009c1.756.747,3.83,1.581,4.769,1.9l2.173-2.13c-.349-.921-1.231-2.871-2.013-4.514a1.186,1.186,0,0,1-.023-.959l1.006-2.389a1.163,1.163,0,0,1,.658-.637c1.768-.684,3.827-1.527,4.728-1.956V19.363c-.912-.407-2.954-1.18-4.71-1.8a1.163,1.163,0,0,1-.689-.649L33.5,14.517a1.177,1.177,0,0,1,.009-.93c.752-1.7,1.59-3.7,1.92-4.636L33.251,6.826c-.932.336-2.952,1.207-4.658,1.986a1.164,1.164,0,0,1-.925.02l-2.441-.986a1.171,1.171,0,0,1-.648-.649c-.7-1.733-1.554-3.747-1.993-4.625h-3.1c-.416.887-1.211,2.888-1.849,4.609a1.152,1.152,0,0,1-.657.678l-2.434.989a1.172,1.172,0,0,1-.9-.007c-1.756-.747-3.837-1.581-4.775-1.893L6.7,9.074c.351.923,1.227,2.873,2.011,4.519a1.179,1.179,0,0,1,.022.959L7.718,16.94a1.165,1.165,0,0,1-.657.637c-1.768.682-3.823,1.522-4.723,1.95v2.981c.909.41,2.952,1.186,4.71,1.812a1.175,1.175,0,0,1,.685.648l1,2.387a1.176,1.176,0,0,1-.007.927c-.752,1.7-1.59,3.7-1.92,4.636l2.173,2.127c.93-.338,2.95-1.209,4.658-1.986a1.179,1.179,0,0,1,.925-.022l2.441.991a1.154,1.154,0,0,1,.646.648C18.354,36.408,19.214,38.421,19.653,39.3Zm1.468-10.929a7.429,7.429,0,1,1,7.565-7.43A7.511,7.511,0,0,1,21.121,28.366Zm0-12.514a5.089,5.089,0,1,0,5.225,5.084A5.163,5.163,0,0,0,21.121,15.852Z" transform="translate(0 -0.232)"/>
        </g>
      </g>
    </g>
  </g>
</svg>
