<svg xmlns="http://www.w3.org/2000/svg" viewBox="0 0 98.289 130.527">
  <defs>
    <style>
      .cls-1 {
        fill: #5c9cee;
      }

      .cls-2 {
        fill: #3580d3;
      }

      .cls-3 {
        fill: #444966;
      }

      .cls-4 {
        fill: #f9c295;
      }

      .cls-5 {
        fill: #e59f6a;
      }

      .cls-6 {
        fill: #2e344c;
      }

      .cls-7 {
        fill: #ebeef2;
      }

      .cls-8 {
        fill: #1b3d66;
      }

      .cls-9 {
        fill: #fcab29;
      }

      .cls-10 {
        fill: #dd8d19;
      }

      .cls-11 {
        fill: #656d88;
      }
    </style>
  </defs>
  <g id="interview" transform="translate(-63.227)">
    <path id="Path_18" data-name="Path 18" class="cls-1" d="M104.555,283.859H86.989a23.789,23.789,0,0,0-23.762,23.762v26.908a1.912,1.912,0,0,0,1.912,1.912h61.266a1.912,1.912,0,0,0,1.912-1.912V307.621A23.789,23.789,0,0,0,104.555,283.859Z" transform="translate(0 -211.494)"/>
    <path id="Path_19" data-name="Path 19" class="cls-2" d="M204.976,283.859h-6.968a23.789,23.789,0,0,1,23.762,23.762v26.908a1.912,1.912,0,0,1-1.912,1.912h6.968a1.912,1.912,0,0,0,1.912-1.912V307.621A23.789,23.789,0,0,0,204.976,283.859Z" transform="translate(-100.421 -211.494)"/>
    <path id="Path_20" data-name="Path 20" class="cls-3" d="M164.186,283.859h-5.45l-7.281,24.748a1.529,1.529,0,0,0,.373,1.5l8.539,8.746a1.53,1.53,0,0,0,2.189,0l8.539-8.746a1.529,1.529,0,0,0,.373-1.5Z" transform="translate(-65.689 -211.494)"/>
    <path id="Path_21" data-name="Path 21" class="cls-4" d="M113.491,0h0A26.483,26.483,0,0,0,87.008,26.483V39.25a26.483,26.483,0,0,0,26.483,26.483h0A26.483,26.483,0,0,0,139.973,39.25V26.483A26.483,26.483,0,0,0,113.491,0Z" transform="translate(-17.718 0)"/>
    <path id="Path_22" data-name="Path 22" class="cls-5" d="M185.719,0c-.595,0-1.184.022-1.769.06,12.073.91,21.62,12.391,21.62,26.422V39.25c0,14.032-9.547,25.512-21.62,26.422.585.038,1.174.06,1.769.06A26.483,26.483,0,0,0,212.2,39.25V26.483A26.483,26.483,0,0,0,185.719,0Z" transform="translate(-89.947 0)"/>
    <path id="Path_23" data-name="Path 23" class="cls-3" d="M130.721,6.385v0c-.049-.042-.1-.081-.149-.123-.2-.171-.408-.341-.616-.506-.095-.075-.191-.149-.286-.224q-.286-.221-.578-.434-.17-.125-.343-.247-.268-.189-.54-.371c-.134-.089-.267-.178-.4-.266-.163-.1-.328-.207-.493-.308s-.313-.192-.471-.285c-.14-.082-.282-.16-.423-.239-.186-.1-.372-.21-.561-.31-.1-.051-.2-.1-.294-.15A26.473,26.473,0,0,0,87.008,26.483v2.448a31.49,31.49,0,0,0,12.745,2.683,31.525,31.525,0,0,0,23.471-10.445,22.868,22.868,0,0,0,16.75,10.313v-5A26.4,26.4,0,0,0,130.721,6.385Z" transform="translate(-17.718 0)"/>
    <path id="Path_24" data-name="Path 24" class="cls-6" d="M212.163,25.045c0-.087-.011-.174-.017-.261-.01-.152-.02-.3-.032-.454-.007-.089-.016-.178-.024-.267-.014-.149-.028-.3-.044-.446-.009-.087-.02-.175-.03-.262-.018-.151-.036-.3-.057-.451q-.017-.124-.034-.247-.034-.236-.072-.47c-.012-.073-.024-.147-.036-.219q-.044-.255-.093-.509c-.011-.057-.022-.115-.033-.172q-.059-.3-.125-.592l-.018-.082a26.462,26.462,0,0,0-8.6-14.229v0c-.049-.042-.1-.081-.149-.122q-.3-.257-.616-.506c-.095-.075-.191-.149-.286-.224q-.286-.221-.578-.434-.17-.125-.343-.247-.268-.189-.54-.371c-.134-.089-.267-.178-.4-.266-.163-.1-.328-.207-.493-.308s-.313-.192-.471-.285c-.14-.082-.282-.16-.423-.239-.186-.1-.372-.21-.561-.31-.1-.051-.2-.1-.294-.15A26.306,26.306,0,0,0,188.944.2L188.9.191q-.34-.041-.684-.073L188.034.1c-.186-.016-.372-.03-.559-.042l-.232-.015q-.27-.015-.54-.024l-.226-.009C186.229,0,185.982,0,185.733,0h-.013c-.285,0-.568.006-.85.015l-.1,0c-.274.01-.548.023-.82.042,12.073.91,21.62,12.391,21.62,26.422v3.251a22.7,22.7,0,0,0,6.632,1.747v-5q0-.362-.01-.721c0-.074-.006-.148-.008-.222C212.178,25.374,212.172,25.209,212.163,25.045Z" transform="translate(-89.947)"/>
    <path id="Path_25" data-name="Path 25" class="cls-5" d="M163.4,202.234a11.009,11.009,0,0,1-9.058-4.986,2.03,2.03,0,0,1,3.365-2.272,6.664,6.664,0,0,0,11.383,0,2.03,2.03,0,0,1,3.367,2.269A11,11,0,0,1,163.4,202.234Z" transform="translate(-67.629 -144.603)"/>
    <path id="Path_26" data-name="Path 26" class="cls-7" d="M221.1,402.681l-12.74-32.689a1.912,1.912,0,0,0-1.781-1.218H158.027a1.912,1.912,0,0,0-1.781,1.218l-12.74,32.689a1.912,1.912,0,0,0,1.781,2.606H219.32a1.912,1.912,0,0,0,1.782-2.606Z" transform="translate(-59.716 -274.761)"/>
    <path id="Path_27" data-name="Path 27" class="cls-8" d="M247.261,449.975H202.294a1.912,1.912,0,1,1,0-3.824h44.967a1.912,1.912,0,1,1,0,3.824Z" transform="translate(-102.189 -332.412)"/>
    <path id="Path_28" data-name="Path 28" class="cls-9" d="M310.919,202.423l-8.564,6.715a2.53,2.53,0,0,1-4.036-1.469l-2.244-10.649,21.832-59.984a2.593,2.593,0,0,1,3.323-1.55l9.971,3.629a2.593,2.593,0,0,1,1.55,3.323Z" transform="translate(-173.487 -100.83)"/>
    <path id="Path_29" data-name="Path 29" class="cls-10" d="M342.467,146.018l-3.914-1.425c.289.105.127,1.282-.363,2.627L316.358,207.2l-4.322,8.259c-.372.711-.675,1.024-.842.963a2.508,2.508,0,0,0,2.426-.386l8.564-6.715,21.832-59.984A2.592,2.592,0,0,0,342.467,146.018Z" transform="translate(-184.752 -107.731)"/>
    <path id="Path_30" data-name="Path 30" class="cls-11" d="M302.354,389.435l8.564-6.715-14.844-5.4,2.244,10.649A2.53,2.53,0,0,0,302.354,389.435Z" transform="translate(-173.486 -281.126)"/>
    <path id="Path_31" data-name="Path 31" class="cls-6" d="M322.184,392.312l-5.826-2.121-4.322,8.259c-.372.711-.675,1.024-.842.963a2.547,2.547,0,0,0,2.426-.386Z" transform="translate(-184.752 -290.718)"/>
  </g>
</svg>
