<?xml version="1.0" encoding="UTF-8" standalone="no"?>
<svg
   xmlns:dc="http://purl.org/dc/elements/1.1/"
   xmlns:cc="http://creativecommons.org/ns#"
   xmlns:rdf="http://www.w3.org/1999/02/22-rdf-syntax-ns#"
   xmlns:svg="http://www.w3.org/2000/svg"
   xmlns="http://www.w3.org/2000/svg"
   xmlns:sodipodi="http://sodipodi.sourceforge.net/DTD/sodipodi-0.dtd"
   xmlns:inkscape="http://www.inkscape.org/namespaces/inkscape"
   id="user"
   viewBox="0 0 39.645 39.645"
   version="1.1"
   sodipodi:docname="user.svg"
   inkscape:export-filename="C:\Users\willian.steffen\Desktop\hack\sabia\front-end\src\assets\img\user.png"
   inkscape:export-xdpi="150"
   inkscape:export-ydpi="150"
   inkscape:version="0.92.3 (2405546, 2018-03-11)">
  <metadata
     id="metadata11">
    <rdf:RDF>
      <cc:Work
         rdf:about="">
        <dc:format>image/svg+xml</dc:format>
        <dc:type
           rdf:resource="http://purl.org/dc/dcmitype/StillImage" />
      </cc:Work>
    </rdf:RDF>
  </metadata>
  <sodipodi:namedview
     pagecolor="#ffffff"
     bordercolor="#666666"
     borderopacity="1"
     objecttolerance="10"
     gridtolerance="10"
     guidetolerance="10"
     inkscape:pageopacity="0"
     inkscape:pageshadow="2"
     inkscape:window-width="1366"
     inkscape:window-height="715"
     id="namedview9"
     showgrid="false"
     inkscape:zoom="5.9528313"
     inkscape:cx="-11.171155"
     inkscape:cy="19.8225"
     inkscape:window-x="-8"
     inkscape:window-y="-8"
     inkscape:window-maximized="1"
     inkscape:current-layer="user" />
  <defs
     id="defs4">
    <style
       id="style2">
      .cls-1 {
        fill: #466982;
      }
    </style>
  </defs>
  <g
     id="Group_4"
     data-name="Group 4"
     style="fill:#ffffff;fill-opacity:1">
    <path
       id="Path_7"
       data-name="Path 7"
       class="cls-1"
       d="M26.761,24.448a13.041,13.041,0,0,0,6.277-11.233,13.215,13.215,0,1,0-26.43,0,13.041,13.041,0,0,0,6.277,11.233A20.429,20.429,0,0,0,0,39.645H3.3a16.932,16.932,0,0,1,33.038,0h3.3A19.9,19.9,0,0,0,26.761,24.448ZM9.911,13.215a9.911,9.911,0,1,1,9.911,9.911A9.941,9.941,0,0,1,9.911,13.215Z"
       style="fill:#ffffff;fill-opacity:1" />
  </g>
</svg>
