<svg id="user" xmlns="http://www.w3.org/2000/svg" viewBox="0 0 39.645 39.645">
  <defs>
    <style>
      .cls-1 {
        fill: #fff;
      }
    </style>
  </defs>
  <g id="Group_4" data-name="Group 4">
    <path id="Path_7" data-name="Path 7" class="cls-1" d="M26.761,24.448a13.041,13.041,0,0,0,6.277-11.233,13.215,13.215,0,1,0-26.43,0,13.041,13.041,0,0,0,6.277,11.233A20.429,20.429,0,0,0,0,39.645H3.3a16.932,16.932,0,0,1,33.038,0h3.3A19.9,19.9,0,0,0,26.761,24.448ZM9.911,13.215a9.911,9.911,0,1,1,9.911,9.911A9.941,9.941,0,0,1,9.911,13.215Z"/>
  </g>
</svg>
